# xmcd
#
# Track frame offsets: 
#        183
#        18290
#        36200
#        57145
#        78040
#        97180
#        109613
#        122115
#        146115
#        161628
#        178098
#        202623
#        221388
#        238765
#        257735
#        278595
#        294950
#        311853
#        328760
#
# Disc length: 4643 seconds
#
# Revision: 12
# Processed by: cddbd v1.5.2PL0 Copyright (c) Steve Scherf et al.
# Submitted via: ExactAudioCopyFreeDBPlugin 1.0
#
DISCID=0c122113
DTITLE=Various Artist - The Best Rock Album In The World...Ever! [CD2]
DYEAR=1994
DGENRE=Rock
TTITLE0=Dire Straits - Money For Nothing
TTITLE1=Roxy Music - Do The Strand
TTITLE2=Peter Gabriel - Sledgehammer
TTITLE3=Iggy Pop - The Passenger
TTITLE4=Hawkwind - Silver Machine
TTITLE5=Motorhead - Ace Of Spades
TTITLE6=Black Sabbath - Paranoid
TTITLE7=Deep Purple - Smoke On The Water
TTITLE8=Bad Company - Can't Get Enough
TTITLE9=Python Lee Jackson - In A Broken Dream
TTITLE10=Phil Collins - In The Air Tonight
TTITLE11=Cream - Sunshine Of Your Love
TTITLE12=Muddy Waters - Mannish Boy
TTITLE13=Free - All Right Now
TTITLE14=Joe Walsh - Life's Been Good
TTITLE15=Status Quo - Caroline
TTITLE16=Survivor - Eye Of The Tiger
TTITLE17=Blue Oyster Cult - (Don't Fear) The Reaper
TTITLE18=Lynyrd Skynyrd - Free Bird
EXTD=
EXTT0=
EXTT1=
EXTT2=
EXTT3=
EXTT4=
EXTT5=
EXTT6=
EXTT7=
EXTT8=
EXTT9=
EXTT10=
EXTT11=
EXTT12=
EXTT13=
EXTT14=
EXTT15=
EXTT16=
EXTT17=
EXTT18=
PLAYORDER=
